<?xml version="1.0" encoding="UTF-8"?>
<!DOCTYPE svg PUBLIC "-//W3C//DTD SVG 1.1//EN" "http://www.w3.org/Graphics/SVG/1.1/DTD/svg11.dtd">
<!-- Creator: CorelDRAW -->
<svg xmlns="http://www.w3.org/2000/svg" xml:space="preserve" width="2142px" height="2142px" shape-rendering="geometricPrecision" text-rendering="geometricPrecision" image-rendering="optimizeQuality" fill-rule="evenodd" clip-rule="evenodd"
viewBox="0 0 2062.18 2062.04"
 xmlns:xlink="http://www.w3.org/1999/xlink">
 <g id="Ebene_x0020_1">
  <metadata id="CorelCorpID_0Corel-Layer"/>
  <path fill="#004B8B" d="M1031.04 0c-569.361,0 -1031.04,461.527 -1031.04,1031.03 0,569.405 461.681,1031.01 1031.04,1031.01 569.529,0 1031.14,-461.63 1031.14,-1031.01 0,-569.5 -461.608,-1031.03 -1031.14,-1031.03z"/>
  <path fill="white" d="M1031.04 1791.05c-419.732,0 -760.023,-340.258 -760.023,-760.027 0,-419.838 340.291,-760.033 760.023,-760.033 419.875,0 760.067,340.195 760.067,760.033 0,419.769 -340.192,760.027 -760.067,760.027z"/>
  <path fill="white" d="M170.397 1335.24l-11.4653 -34.2584 54.0919 0.886846 0.0477533 0.389985 -42.6744 32.9816zm-70.5486 -60.5557l8.09532 24.386 30.2415 1.28479 15.8029 47.5839 -23.5139 19.0388 8.64903 26.0505 101.968 -85.0054 -8.8389 -26.5758 -132.404 -6.76277z"/>
  <path fill="white" d="M236.561 1431.89l3.88166 7.17891c5.63943,10.7684 13.8325,22.3076 27.3706,15.0843 13.1549,-6.96061 7.80652,-19.7357 1.97721,-30.6462l-3.80889 -7.25622 -29.4206 15.6392zm35.0384 -46.647l12.5023 23.6458c12.4102,23.4457 28.0459,51.0357 -2.31262,67.1047 -12.7717,6.8219 -28.0016,3.90326 -37.2748,-9.07198l-0.24104 0.101191c2.6992,6.30798 -1.51787,12.8741 -5.15508,17.6346l-33.4193 40.1787 -12.9173 -24.419 27.0863 -31.2306c6.47512,-7.39835 8.11692,-11.8781 3.25063,-21.1661l-3.75773 -7.01063 -45.3474 23.996 -11.5904 -21.8801 109.176 -57.8826z"/>
  <path fill="white" d="M375.661 1590.77c-2.31262,-10.2806 -8.16695,-21.381 -14.1429,-29.2864 -17.5652,-22.9489 -42.7687,-23.7186 -62.8876,-8.35682 -19.9722,15.2879 -25.4923,39.1941 -9.46993,60.1543 4.09655,5.32335 7.93045,9.15271 11.2539,11.7757l25.6094 -19.5129 -15.8768 -20.7931 15.4675 -11.911 30.3404 39.6943 -52.8663 40.4777c-10.8457,-8.24426 -21.348,-17.3242 -29.4433,-27.955 -24.2655,-31.682 -25.2285,-65.9655 7.82926,-91.3418 33.7547,-25.7686 68.2349,-19.7096 93.7272,13.637 8.74453,11.4073 14.052,21.6061 17.9814,31.9992l-17.522 11.4187z"/>
  <polygon fill="white" points="430.455,1614.68 483.488,1664.84 470.042,1678.94 435.102,1645.78 414.166,1667.92 446.144,1698.29 432.745,1712.41 400.723,1682.11 376.818,1707.3 412.047,1740.64 398.673,1754.81 345.471,1704.36 "/>
  <polygon fill="white" points="518.326,1694.26 543.53,1711.44 530.353,1814.3 530.617,1814.52 582.663,1738.16 602.248,1751.49 532.689,1853.67 507.627,1836.49 520.665,1733.61 520.373,1733.37 468.283,1809.7 448.694,1796.3 "/>
  <polygon fill="white" points="657.282,1801.68 625.19,1786.67 633.475,1769.02 720.049,1809.57 711.786,1827.21 679.761,1812.16 635.525,1906.48 613.119,1895.93 "/>
  <polygon fill="white" points="755.084,1821.34 778.599,1829.05 739.591,1946.41 716.124,1938.56 "/>
  <polygon fill="white" points="824.329,1843.65 854.331,1849.36 883.387,1948.87 883.7,1948.97 900.93,1858.18 924.233,1862.59 901.266,1983.98 871.535,1978.39 842.233,1878.75 841.895,1878.64 824.716,1969.47 801.391,1965.03 "/>
  <path fill="white" d="M980.708 1928.53c0.360423,-21.8289 10.8639,-44.024 35.4875,-43.5896 24.6532,0.507094 34.2687,22.9898 33.9992,44.6766 -0.45593,22.2564 -10.1203,44.7425 -35.5136,44.1627 -25.3206,-0.408177 -34.2868,-22.9852 -33.973,-45.2496zm-25.8061 -0.45593c-0.678779,37.899 19.7323,64.617 59.4403,65.2185 39.1099,0.726532 61.0821,-25.8243 61.7052,-63.2196 0.558258,-37.3476 -20.8409,-63.8973 -59.4869,-64.5545 -39.3214,-0.674231 -61.0821,24.602 -61.6586,62.5556z"/>
  <path fill="white" d="M1179.36 1878.32c-8.2579,-2.29102 -17.057,-3.11192 -25.5901,-1.92264 -8.50349,1.1745 -18.8887,6.28524 -16.9808,19.6516 2.91409,21.2059 55.296,4.96861 60.9832,46.0523 3.53829,26.8123 -16.31,39.8979 -41.036,43.2679 -13.2754,1.78393 -19.5209,0.847052 -32.0481,-0.480944l-0.769737 -22.3554c9.08676,3.3234 19.1297,5.03115 28.7941,3.77933 9.30165,-1.29843 21.1547,-7.686 19.6618,-18.7727 -3.22789,-23.3684 -55.6348,-6.45238 -61.056,-47.029 -3.76114,-27.3194 16.1429,-40.2628 37.6841,-43.1553 10.4807,-1.32458 20.5555,-1.32458 29.9458,0.437738l0.411588 20.5271z"/>
  <path fill="white" d="M1325.84 1923.04c3.51669,0 7.13229,-0.363834 11.8815,-2.02724 15.1287,-5.61442 10.6012,-17.7369 7.56548,-25.996l-28.337 -77.2966 23.2524 -8.63197 32.4518 88.6028c4.57863,12.2351 2.84587,32.4518 -20.9102,41.1781 -6.36483,2.30921 -11.4722,3.66222 -18.6044,4.40694l-7.29943 -20.236z"/>
  <path fill="white" d="M1384.46 1791.44l21.9097 -11.8337 33.8241 62.6466c10.0975,18.6522 22.5987,27.5605 39.343,18.5544 16.584,-8.98898 15.953,-24.3621 5.93164,-42.912l-33.9946 -62.7705 21.7562 -11.7825 37.6102 69.4423c15.8291,29.1079 5.75995,50.0215 -22.0961,65.2003 -27.9209,15.0593 -50.8891,12.0975 -66.6476,-17.1775l-37.6364 -69.3673z"/>
  <polygon fill="white" points="1512.38,1717.41 1536.26,1698.51 1630.73,1741.32 1630.98,1741.15 1573.39,1668.87 1592.02,1654.1 1669.02,1750.69 1645.29,1769.58 1550.71,1726.81 1550.45,1726.96 1608.11,1799.29 1589.51,1814.05 "/>
  <polygon fill="white" points="1627.89,1617.61 1644.97,1599.71 1734.39,1685.13 1717.28,1703.06 "/>
  <path fill="white" d="M1737.76 1586.58c-17.5834,-12.8229 -29.7491,-34.0617 -15.2958,-54.0124 14.5045,-19.8745 38.4527,-14.949 56.1135,-2.17732 18.1224,13.1685 30.6246,33.9253 15.8313,54.4342 -14.8911,20.4987 -38.621,14.8876 -56.649,1.7555zm-15.2447 20.9603c30.7372,22.2428 64.3759,20.8454 87.675,-11.2493 23.008,-31.6718 13.7382,-64.8319 -16.4305,-86.8621 -30.238,-21.9028 -64.2623,-19.6846 -86.9814,11.67 -23.1319,31.8571 -14.866,64.1304 15.737,86.4414z"/>
  <path fill="white" d="M1820.62 1441.43l3.66336 -7.28578c5.42454,-10.9912 10.0248,-24.3019 -3.73612,-31.1203 -13.3436,-6.67636 -20.5998,5.14712 -26.0676,16.277l-3.59059 7.3324 29.731 14.7967zm-58.2101 -1.2666l11.8303 -23.9699c11.8565,-23.7595 25.1307,-52.5672 55.9236,-37.2896 13.0116,6.46033 19.4913,20.5782 14.3362,35.5637l0.310396 0.193287c3.44733,-5.77132 11.305,-6.26364 17.2514,-6.08513l52.1397 3.75432 -12.3556 24.751 -41.0576 -3.84073c-9.92586,-0.919819 -14.5261,0.320629 -19.1559,9.64843l-3.46893 7.21643 45.9239 22.7703 -11.0128 22.2019 -110.665 -54.914z"/>
  <path fill="white" d="M1858.26 1267.23c-5.57008,6.31139 -10.1226,13.9644 -12.8218,22.1916 -2.64462,8.12374 -2.50591,19.7346 10.2874,23.8277 20.3372,6.69114 28.5815,-47.6896 67.9245,-34.8383 25.7583,8.35114 28.8407,31.9526 21.232,55.6837 -4.1443,12.8297 -7.7383,17.9507 -14.3624,28.6576l-20.4293 -9.11178c6.939,-6.64339 12.7683,-14.99 15.8473,-24.22 2.91863,-8.93668 2.24327,-22.394 -8.40457,-25.8163 -22.3656,-7.33922 -29.9288,47.2382 -68.7715,34.5825 -26.328,-8.55352 -29.3228,-32.0686 -22.5225,-52.7378 3.29725,-10.1351 7.7076,-19.1309 13.3436,-26.7327l18.6772 8.51373z"/>
  <path fill="white" d="M129.511 805.546l-0.150082 0.364971 45.1837 29.6798 8.71838 -35.0168 -53.752 4.97202zm-27.3024 7.2187l6.72411 -27.1227 131.677 -17.1014 -6.65135 26.5974 -30.0914 3.4985 -12.1441 48.5833 24.8385 17.3617 -6.19428 24.9261 -108.159 -76.7429z"/>
  <path fill="white" d="M189.144 631.421c-6.18973,5.77132 -11.5165,12.9798 -14.9377,20.9102 -3.37456,7.80652 -4.33759,19.356 8.02482,24.7442 19.5902,8.49212 33.0077,-44.7789 70.9568,-28.2392 24.7487,10.7581 25.7072,34.529 15.8075,57.4051 -5.37338,12.3624 -9.37215,17.1673 -17.1093,27.1477l-19.5129 -10.9651c7.63484,-5.95438 14.2634,-13.72 18.1417,-22.6146 3.78274,-8.62742 4.3842,-22.0552 -5.85546,-26.4951 -21.5413,-9.38238 -34.2914,44.2138 -71.7811,27.8822 -25.4195,-10.9878 -26.021,-34.6996 -17.4152,-54.6764 4.28642,-9.71779 9.48812,-18.2361 15.9007,-25.3422l17.7801 10.2431z"/>
  <path fill="white" d="M264.851 571.711c-18.2145,-11.9292 -31.2738,-32.628 -17.7801,-53.2017 13.4641,-20.6158 37.6318,-16.8319 55.8497,-4.88107 18.6749,12.2169 32.3835,32.4085 18.5283,53.5883 -13.9974,21.1763 -37.8513,16.708 -56.5979,4.49449zm-14.0929 21.6106c31.6581,20.7351 65.1752,17.7472 86.9541,-15.4198 21.3696,-32.7451 10.6513,-65.4413 -20.6988,-85.899 -31.1761,-20.4429 -65.0547,-16.5874 -86.2344,15.8279 -21.6368,32.9156 -11.7109,64.7341 19.9791,85.4909z"/>
  <path fill="white" d="M453.848 429.608c-4.57749,8.04074 -9.8781,16.3873 -16.2407,23.2922 -27.2285,29.4171 -60.7899,36.239 -91.3884,7.86564 -31.059,-28.7099 -30.9896,-63.7927 -2.55707,-94.6583 5.56667,-5.93846 14.1679,-12.782 22.8215,-17.032l14.1179 15.5153c-10.2408,3.25404 -17.0365,8.65926 -22.9648,15.1673 -17.2981,18.7181 -13.7086,43.6704 4.82308,60.8047 18.4328,17.1207 42.9109,18.4919 60.9104,-0.867518 6.52969,-7.19028 12.7717,-17.0297 14.5545,-23.3991l15.9234 13.3118z"/>
  <polygon fill="white" points="412.021,305.15 431.081,289.285 510.137,384.3 491.029,400.166 "/>
  <path fill="white" d="M581.141 276.572l-30.6724 19.1445 -11.8269 -52.7321 0.310396 -0.181917 42.1889 33.7695zm-42.2616 82.7791l21.6868 -13.6029 -5.75995 -29.7571 42.5027 -26.5645 24.0222 18.4112 23.2774 -14.5295 -106.646 -79.1397 -23.7334 14.8626 24.6498 130.32z"/>
  <path fill="white" d="M762.383 241.635c-7.58708,5.42113 -15.8791,10.7365 -24.5509,14.2748 -37.1543,15.1935 -70.4531,7.16754 -86.2378,-31.4819 -16.069,-39.1509 -1.08354,-70.917 37.7603,-86.7961 7.58367,-3.09714 18.0939,-5.74972 27.7537,-5.89525l6.3148 20.0268c-10.6524,-1.36438 -19.0604,0.6856 -27.2034,4.06812 -23.6345,9.68823 -31.0362,33.7104 -21.4208,57.1777 9.61205,23.2524 31.2227,34.8929 55.5882,24.876 9.03219,-3.67018 18.8375,-10.0066 23.1274,-15.0195l8.86846 18.7693z"/>
  <polygon fill="white" points="769.687,113.233 793.563,106.813 825.753,226.153 801.851,232.61 "/>
  <path fill="white" d="M886.885 149.426c-2.72535,-21.6152 4.59682,-44.987 29.1261,-47.9716 24.4372,-3.06417 37.1543,17.8756 39.6864,39.4999 2.79357,22.1291 -3.8123,45.5998 -28.893,48.7197 -25.1046,3.09714 -37.1759,-18.1053 -39.9195,-40.248zm-25.6674 3.14376c4.6332,37.5886 28.6042,61.2686 67.9006,56.4307 38.8871,-4.77533 56.8423,-34.1197 52.3842,-71.2115 -4.62866,-37.0497 -29.4683,-60.4113 -67.8517,-55.6837 -39.0337,4.79352 -57.0583,32.8508 -52.4331,70.4645z"/>
  <polygon fill="white" points="1042.53,75.7651 1072.92,77.7423 1113.98,173.009 1114.36,173.024 1120.33,80.8031 1144.02,82.3175 1136.09,205.688 1105.78,203.732 1064.58,108.436 1064.32,108.436 1058.36,200.672 1034.61,199.107 "/>
  <path fill="white" d="M1337.21 207.515l-34.0469 -11.9281 33.657 -42.2366 0.364971 0.160315 0.0250136 54.0044zm-91.0314 18.8569l24.2405 8.47734 19.5606 -23.2229 47.303 16.5147 0.726532 30.3142 25.8743 9.04697 -4.99022 -132.692 -26.5019 -9.26527 -86.2128 100.826z"/>
  <polygon fill="white" points="1454.77,197.816 1423.35,181.312 1432.51,164.086 1517.03,208.61 1508.09,225.829 1476.7,209.336 1428.19,301.487 1406.29,289.919 "/>
  <polygon fill="white" points="1564.81,239.694 1584.91,254.177 1523.95,338.642 1562.88,366.735 1551.49,382.491 1492.43,339.883 "/>
  <polygon fill="white" points="1667.12,319.173 1719.74,369.771 1706.22,383.808 1671.55,350.407 1650.4,372.419 1682.18,402.959 1668.73,416.996 1636.95,386.398 1612.81,411.43 1647.87,445.079 1634.3,459.091 1581.46,408.289 "/>
  <polygon fill="white" points="1762.78,449.54 1741.09,421.55 1756.44,409.632 1815.01,485.221 1799.62,497.157 1777.93,469.141 1695.57,532.918 1680.37,513.278 "/>
  <polygon fill="white" points="1843.04,529.833 1855.81,551.097 1749.81,614.757 1737.04,593.548 "/>
  <path fill="white" d="M1814.07 743.95c-5.68719,-7.41995 -11.1811,-15.646 -14.9388,-24.2405 -16.0212,-36.6586 -8.79456,-70.137 29.4649,-86.8848 38.7711,-16.9513 70.942,-2.78333 87.683,35.6956 3.30521,7.4245 6.1181,17.9882 6.48194,27.6742l-19.8301 6.78096c1.05853,-10.7468 -1.18132,-19.0354 -4.673,-27.1182 -10.2692,-23.4173 -34.5529,-30.2017 -57.7326,-20.0461 -22.9602,10.0577 -34.1379,31.9378 -23.5401,56.1169 3.85551,8.90485 10.4807,18.5897 15.5687,22.7453l-18.4839 9.27664z"/>
  <path fill="white" d="M1889.44 843.966l-8.33863 -35.1771 53.7815 5.66558 0 0.33541 -45.4429 29.1761zm-65.007 -66.4873l5.92823 25.0216 30.1391 3.92486 11.6154 48.7549 -25.1523 16.916 6.38302 26.6736 109.031 -75.8231 -6.41258 -27.1921 -131.532 -18.2759z"/>
  <polygon fill="#D9322B" points="1562.71,1381.05 497.074,1381.05 497.074,642.007 1562.71,642.007 "/>
  <polygon fill="white" points="640.537,670.714 525.148,670.714 525.148,777.092 1422.03,1352.97 1534.74,1352.97 1534.74,1244.64 "/>
  <path fill="white" d="M171.047 1049.01c0,-18.5385 -15.0332,-33.6342 -33.4887,-33.6342 -18.7466,0 -33.7798,15.0957 -33.7798,33.6342 0,18.6636 15.0332,33.6308 33.7798,33.6308 18.4555,0 33.4887,-14.9672 33.4887,-33.6308z"/>
  <path fill="white" d="M1959.66 1046.93c0,-15.5914 -12.6808,-28.3006 -28.2654,-28.3006 -15.6597,0 -28.3404,12.7092 -28.3404,28.3006 0,15.6938 12.6808,28.2972 28.3404,28.2972 15.5846,0 28.2654,-12.6035 28.2654,-28.2972z"/>
  <polygon fill="#004B8B" points="689.518,509.677 713.015,509.677 730.409,565.181 730.65,565.181 748.072,509.677 771.587,509.677 771.587,582.95 757.495,582.95 757.495,522.486 757.302,522.486 737.518,582.95 723.544,582.95 703.833,522.486 703.542,522.737 703.542,582.95 689.518,582.95 "/>
  <polygon fill="#004B8B" points="799.053,509.677 842.329,509.677 842.329,521.267 813.802,521.267 813.802,539.303 839.874,539.303 839.874,550.834 813.802,550.834 813.802,571.397 842.428,571.397 842.428,582.95 799.053,582.95 "/>
  <polygon fill="#004B8B" points="867.197,509.677 885.192,509.677 913.121,564.491 913.359,564.491 913.359,509.677 927.381,509.677 927.381,582.95 909.455,582.95 881.413,528.194 881.267,528.194 881.267,582.95 867.197,582.95 "/>
  <path fill="#004B8B" d="M993.6 523.127c-4.70256,-1.94424 -9.85764,-3.16195 -14.8911,-3.16195 -5.13348,0 -11.6632,2.21712 -11.6632,10.2317 0,12.6705 32.0913,7.3108 32.0913,31.8651 0,16.1031 -12.6,22.1655 -27.4183,22.1655 -7.99981,0 -11.5927,-1.08696 -18.7648,-2.88225l1.29843 -13.1685c5.08117,2.70261 10.7945,4.50927 16.5988,4.50927 5.51891,0 13.0116,-2.85269 13.0116,-9.45628 0,-13.9792 -32.0913,-8.1931 -32.0913,-32.4154 0,-16.376 12.691,-22.3519 25.6128,-22.3519 6.28524,0 12.1145,0.820901 17.4959,2.58664l-1.28024 12.0782z"/>
  <path fill="#004B8B" d="M1102.02 523.127c-4.60364,-1.94424 -9.73712,-3.16195 -14.8911,-3.16195 -5.05957,0 -11.5677,2.21712 -11.5677,10.2317 0,12.6705 32.1459,7.3108 32.1459,31.8651 0,16.1031 -12.6774,22.1655 -27.5684,22.1655 -7.90089,0 -11.5131,-1.08696 -18.692,-2.88225l1.3496 -13.1685c5.005,2.70261 10.6922,4.50927 16.5954,4.50927 5.57008,0 13.0116,-2.85269 13.0116,-9.45628 0,-13.9792 -32.1641,-8.1931 -32.1641,-32.4154 0,-16.376 12.6728,-22.3519 25.6344,-22.3519 6.2932,0 12.1737,0.820901 17.4959,2.58664l-1.3496 12.0782z"/>
  <path fill="#004B8B" d="M1160.63 524.385l-0.343369 0 -10.5057 30.2426 21.3298 0 -10.4807 -30.2426zm-8.14989 -14.708l16.5545 0 28.8407 73.2728 -16.4044 0 -6.17268 -16.7807 -29.7344 0 -6.33299 16.7807 -15.3038 0 28.553 -73.2728z"/>
  <polygon fill="#004B8B" points="1217.02,509.677 1235.07,509.677 1262.97,564.491 1263.22,564.491 1263.22,509.677 1277.29,509.677 1277.29,582.95 1259.36,582.95 1231.34,528.194 1231.12,528.194 1231.12,582.95 1217.02,582.95 "/>
  <path fill="#004B8B" d="M1333.14 524.385l-0.24104 0 -10.6001 30.2426 21.3946 0 -10.5535 -30.2426zm-8.09077 -14.708l16.5761 0 28.6918 73.2728 -16.2338 0 -6.26364 -16.7807 -29.6912 0 -6.38416 16.7807 -15.2037 0 28.5087 -73.2728z"/>
  <polygon fill="#004B8B" points="968.035,1439.59 982.776,1439.59 982.776,1512.91 968.035,1512.91 "/>
  <polygon fill="#004B8B" points="1008.27,1439.59 1026.27,1439.59 1054.25,1494.39 1054.48,1494.39 1054.48,1439.59 1068.46,1439.59 1068.46,1512.91 1050.48,1512.91 1022.58,1458.08 1022.32,1458.08 1022.32,1512.91 1008.27,1512.91 "/>
  <path fill="#004B8B" d="M614.392 1583.02c-4.96065,-2.52865 -9.99862,-5.31539 -14.2384,-8.83208 -18.3418,-15.1821 -23.5185,-34.7837 -7.85769,-53.9021 16.0008,-19.298 36.8189,-20.4475 56.0009,-4.62524 3.73158,3.14376 8.04301,7.91226 10.8889,12.9025l-8.67518 8.90144c-2.26487,-5.89184 -5.78156,-9.73371 -9.78032,-13.0128 -11.662,-9.69619 -26.3382,-6.7821 -35.9036,4.80034 -9.44378,11.5029 -9.44378,26.0653 2.57981,35.9946 4.48312,3.71338 10.5273,7.06976 14.384,7.85769l-7.39835 9.91562z"/>
  <path fill="#004B8B" d="M702.943 1554.2c19.5425,12.1657 22.1871,32.2119 10.4079,50.9107 -11.6848,18.7693 -31.0078,25.5184 -50.648,13.1992 -19.9506,-12.4727 -22.0927,-32.3324 -10.0691,-51.3677 11.9224,-19.0456 30.6212,-25.1921 50.3092,-12.7422zm-34.0936 54.3807c12.7422,7.93045 24.4781,-0.409314 31.5626,-11.6154 6.86851,-10.9184 8.79456,-25.3422 -3.47348,-33.043 -12.4068,-7.79629 -24.4781,0.251273 -31.3432,11.1697 -7.0618,11.1993 -9.42217,25.4445 3.25404,33.4887z"/>
  <path fill="#004B8B" d="M750.407 1617.56l4.38875 2.00677c6.57744,2.93683 14.5989,5.43932 18.4032,-2.84928 3.66677,-7.9964 -3.46552,-12.0929 -10.093,-15.1787l-4.43309 -1.97721 -8.26586 17.9984zm-0.262643 -34.6223l14.4056 6.60246c14.2202,6.62861 31.6388,13.953 23.0375,32.5075 -3.594,7.80652 -11.7837,11.8042 -20.7943,9.02878l-0.0466163 0.244451c3.37002,1.95106 3.82936,6.57631 3.82936,10.1226l-1.32686 30.9089 -14.8183 -6.71502 1.54289 -24.5554c0.364971,-5.81112 -0.430916,-8.4853 -6.07376,-11.1549l-4.33759 -1.98062 -12.6944 27.615 -13.3516 -6.07376 30.628 -66.5499z"/>
  <path fill="#004B8B" d="M828.186 1627.95l4.84468 1.68842c7.18232,2.28761 12.4102,7.08795 9.75417,15.1287 -2.60142,8.10214 -9.63479,8.34204 -16.6682,6.07376l-4.8913 -1.6418 6.96061 -21.2491zm-33.2044 54.0954l14.0008 4.50586 8.65016 -26.3609 5.83272 1.85669c15.0809,4.91745 28.8157,2.93683 34.1413,-13.3038 5.44274,-16.6966 -6.94242,-25.656 -22.1939,-30.5484l-17.6312 -5.82931 -22.7999 69.68z"/>
  <path fill="#004B8B" d="M888.446 1670.91c2.41154,-12.6216 10.6967,-24.577 25.0841,-21.8551 14.3146,2.74695 17.7324,16.8205 15.4448,29.5672 -2.60369,13.0116 -10.5023,25.0284 -25.2285,22.2633 -14.7194,-2.7947 -17.7585,-17.0365 -15.3004,-29.9754zm-15.0582 -2.81972c-4.21707,22.0222 5.10733,39.7375 28.1653,44.1433 22.8226,4.23981 38.2163,-8.98785 42.4117,-30.8179 4.11474,-21.7311 -5.73835,-39.4453 -28.2859,-43.6806 -22.917,-4.33759 -38.1003,8.26245 -42.2912,30.3552z"/>
  <path fill="#004B8B" d="M986.129 1659.78l4.84355 0.266054c7.30056,0.430916 15.4902,1.61224 15.0116,10.3863 -0.480944,9.12656 -8.89348,9.72916 -16.1167,9.31985l-4.74918 -0.21489 1.01078 -19.7573zm-17.9518 60.8627l14.6284 0.769737 1.66341 -30.3836 4.74235 0.291068c6.17154,0.313807 7.87929,2.48431 9.78373,8.09532l7.51432 23.3718 16.3657 0.774285 -10.1487 -29.2318c-1.32458,-3.30066 -3.36774,-7.42336 -7.37333,-7.90089l0 -0.270602c9.37556,-0.743587 15.5664,-7.53592 15.978,-16.0906 1.05853,-20.3599 -17.6846,-20.8705 -33.3238,-21.7607l-15.8757 -0.81749 -3.95443 73.1535z"/>
  <polygon fill="#004B8B" points="1047.16,1649.83 1090.37,1647.23 1090.99,1658.82 1062.53,1660.48 1063.59,1678.47 1089.66,1676.91 1090.41,1688.45 1064.32,1689.99 1065.48,1710.57 1094.32,1708.84 1095.03,1720.31 1051.54,1722.96 "/>
  <path fill="#004B8B" d="M1197.63 1641.25c-4.99022,-0.91186 -10.2397,-0.79134 -15.2776,0.411588 -4.90949,1.1313 -10.674,4.84127 -8.83549,12.5273 2.95502,12.3635 32.9088,-0.33541 38.6688,23.6174 3.73158,15.5653 -7.18687,24.4303 -21.5413,27.9027 -7.75877,1.85328 -11.4983,1.61338 -18.966,1.61338l-1.71116 -13.181c5.49845,1.44169 11.4994,1.90103 17.1355,0.551437 5.37338,-1.32117 11.9974,-5.80771 10.4546,-12.2135 -3.25063,-13.5665 -33.1021,-0.45593 -38.7893,-24.0438 -3.78615,-15.8802 7.13229,-24.7044 19.6596,-27.739 6.16813,-1.47012 12.0452,-1.9954 17.663,-1.51446l1.53947 12.0679z"/>
  <path fill="#004B8B" d="M1252.35 1624.65l-0.218301 0.12052 0.579861 32.0436 20.0712 -7.54047 -20.4327 -24.6236zm-12.7706 -10.915l15.5914 -5.78156 52.5263 58.5978 -15.2515 5.68719 -11.7609 -13.5415 -27.8788 10.334 -0.0943695 18.0257 -14.2669 5.27446 1.13471 -78.5962z"/>
  <polygon fill="#004B8B" points="1298.11,1590.12 1314.01,1581.55 1364.58,1616.51 1364.78,1616.43 1338.76,1568.21 1351.11,1561.56 1385.88,1625.99 1370.15,1634.51 1319.48,1599.59 1319.26,1599.71 1345.29,1647.95 1332.9,1654.58 "/>
  <path fill="#004B8B" d="M1403.59 1570.44c-7.58708,-10.3602 -10.6478,-24.5907 1.04375,-33.2806 11.703,-8.65585 24.4269,-1.62361 32.1391,8.82071 7.80652,10.6092 11.2755,24.544 -0.726532,33.5182 -12.0964,8.98785 -24.627,1.56449 -32.4563,-9.05834zm-12.2646 9.05834c13.3482,18.0939 32.6246,23.3252 51.4917,9.27323 18.6522,-13.7711 19.3958,-34.1311 6.19087,-51.9442 -13.1731,-17.7619 -32.7622,-22.5884 -51.2688,-8.95942 -18.7216,13.8814 -19.7573,33.5831 -6.41372,51.6304z"/>
 </g>
</svg>
